<?xml version="1.0" encoding="utf-8"?>
<!-- Generator: Adobe Illustrator 23.0.3, SVG Export Plug-In . SVG Version: 6.00 Build 0)  -->
<svg version="1.1"
	 id="logosvg.com" xmlns:cc="http://creativecommons.org/ns#" xmlns:dc="http://purl.org/dc/elements/1.1/" xmlns:rdf="http://www.w3.org/1999/02/22-rdf-syntax-ns#" xmlns:svg="http://www.w3.org/2000/svg"
	 xmlns="http://www.w3.org/2000/svg" xmlns:xlink="http://www.w3.org/1999/xlink" x="0px" y="0px" viewBox="0 0 400 300"
	 style="enable-background:new 0 0 400 300;" xml:space="preserve">
<style type="text/css">
	.st0{fill:#333333;}
</style>
<path id="logo" class="st0" d="M108.4,171.1h38.3v14.6H116H116c-2.4,0-4.3,2-4.3,4.4c0,0,0,0,0,0h0V212h0l0,0c0,2.4,1.9,4.4,4.3,4.4
	h0.1h3.2h27.5V231h-38.3v0c-6.3,0-11.3-5.1-11.3-11.3v-37.3C97,176.1,102.1,171.1,108.4,171.1z M146.3,69h-37.8
	C102.1,69,97,74.2,97,80.5v37.8c0,6.4,5.1,11.5,11.5,11.5H134V115h-17.8h0c-2.4,0-4.4-2-4.4-4.4v0V88.3v0c0-2.4,2-4.4,4.4-4.4h0
	h22.2h0c2.4,0,4.4,2,4.4,4.4v0v48.9v0c0,2.4-2,4.4-4.4,4.4h0H97v14.8h49.3c6.3,0,11.5-5.1,11.5-11.5V80.5
	C157.8,74.2,152.6,69,146.3,69z M229.9,182.4V231h14.6v-40.9v0c0-2.4,1.9-4.4,4.4-4.4h0h10.2v45.3h14.6v-40.9v0
	c0-2.4,1.9-4.4,4.3-4.4h0h10.2v45.3H303v-59.9h-61.7C235,171.1,229.9,176.1,229.9,182.4z M291.5,69h-37.8c-6.4,0-11.5,5.1-11.5,11.5
	v37.8c0,6.4,5.1,11.5,11.5,11.5h25.6V115h-17.8h0c-2.4,0-4.4-2-4.4-4.4v0V88.3v0c0-2.4,2-4.4,4.4-4.4h0h22.3h0c2.5,0,4.4,2,4.4,4.4
	v0v48.9v0c0,2.4-2,4.4-4.4,4.4h0h-41.5v14.8h49.3c6.3,0,11.5-5.1,11.5-11.5V80.5C303,74.2,297.9,69,291.5,69z M230.4,118.3
	c0,6.3-5.2,11.5-11.5,11.5h-37.8c-6.3,0-11.5-5.1-11.5-11.5V80.5c0-6.3,5.1-11.5,11.5-11.5h37.8c6.3,0,11.5,5.1,11.5,11.5V118.3z
	 M215.5,88.3c0-2.4-1.9-4.4-4.4-4.4h-0.1h-22.2h0c-2.5,0-4.4,2-4.4,4.4v0v22.2v0c0,2.4,2,4.4,4.4,4.4h0h22.2h0.1
	c2.5,0,4.4-2,4.4-4.4v0V88.3L215.5,88.3z M218.2,182.4v37.3c0,6.3-5.1,11.3-11.3,11.3h-37.2c-6.3,0-11.3-5.1-11.3-11.3v-37.3
	c0-6.2,5.1-11.3,11.3-11.3h37.2C213.2,171.1,218.2,176.1,218.2,182.4z M203.6,190c0-2.4-1.9-4.4-4.3-4.4h-0.1h-21.9h0
	c-2.4,0-4.3,2-4.3,4.4v0V212c0,2.4,1.9,4.4,4.3,4.4c0,0,0,0,0,0v0h21.9v0c0,0,0,0,0.1,0c2.4,0,4.3-2,4.3-4.4V190L203.6,190z
	 M332,43.6v212.8c0,5.3-2.2,10.1-5.6,13.6c-3.5,3.5-8.3,5.6-13.6,5.6H87.2c-5.3,0-10.1-2.2-13.6-5.6c-3.5-3.5-5.6-8.3-5.6-13.6V43.6
	c0-5.3,2.2-10.1,5.6-13.6c3.5-3.5,8.3-5.6,13.6-5.6h225.5c5.3,0,10.1,2.1,13.6,5.6C329.8,33.5,332,38.3,332,43.6z M326.4,43.6
	c0-3.8-1.5-7.1-4-9.6c-2.5-2.5-5.8-4-9.6-4H87.2c-3.8,0-7.1,1.5-9.6,4c-2.5,2.5-4,5.8-4,9.6v212.8c0,3.8,1.5,7.1,4,9.6
	c2.5,2.5,5.8,4,9.6,4h225.5c3.8,0,7.1-1.5,9.6-4c2.5-2.5,4-5.8,4-9.6V43.6z"/>
</svg>
